<svg xmlns="http://www.w3.org/2000/svg" viewBox="0 0 32 32" width="32" height="32">
  <!-- Cat head -->
  <circle cx="16" cy="18" r="12" fill="#ff6b6b" stroke="#ff5252" stroke-width="1"/>
  
  <!-- Cat ears -->
  <polygon points="8,10 12,6 16,10" fill="#ff6b6b" stroke="#ff5252" stroke-width="1"/>
  <polygon points="16,10 20,6 24,10" fill="#ff6b6b" stroke="#ff5252" stroke-width="1"/>
  
  <!-- Inner ears -->
  <polygon points="10,8 12,6 14,8" fill="#ff8a80"/>
  <polygon points="18,8 20,6 22,8" fill="#ff8a80"/>
  
  <!-- Eyes -->
  <circle cx="12" cy="16" r="2" fill="#2c3e50"/>
  <circle cx="20" cy="16" r="2" fill="#2c3e50"/>
  
  <!-- Eye highlights -->
  <circle cx="12.5" cy="15.5" r="0.5" fill="#ffffff"/>
  <circle cx="20.5" cy="15.5" r="0.5" fill="#ffffff"/>
  
  <!-- Nose -->
  <polygon points="16,19 15,21 17,21" fill="#ff1744"/>
  
  <!-- Mouth -->
  <path d="M16 21 Q14 23 12 22" stroke="#2c3e50" stroke-width="1" fill="none"/>
  <path d="M16 21 Q18 23 20 22" stroke="#2c3e50" stroke-width="1" fill="none"/>
  
  <!-- Whiskers -->
  <line x1="6" y1="18" x2="10" y2="19" stroke="#2c3e50" stroke-width="0.5"/>
  <line x1="6" y1="20" x2="10" y2="20" stroke="#2c3e50" stroke-width="0.5"/>
  <line x1="22" y1="19" x2="26" y2="18" stroke="#2c3e50" stroke-width="0.5"/>
  <line x1="22" y1="20" x2="26" y2="20" stroke="#2c3e50" stroke-width="0.5"/>
  
  <!-- Coding symbol (small keyboard) -->
  <rect x="14" y="24" width="4" height="2" fill="#37474f" rx="0.5"/>
  <rect x="14.5" y="24.3" width="0.5" height="0.5" fill="#ffffff"/>
  <rect x="15.2" y="24.3" width="0.5" height="0.5" fill="#ffffff"/>
  <rect x="15.9" y="24.3" width="0.5" height="0.5" fill="#ffffff"/>
  <rect x="16.6" y="24.3" width="0.5" height="0.5" fill="#ffffff"/>
  <rect x="17.3" y="24.3" width="0.5" height="0.5" fill="#ffffff"/>
</svg>
